<svg width="402" height="307" viewBox="0 0 402 307" fill="none" xmlns="http://www.w3.org/2000/svg">
<g clip-path="url(#clip0_2897_14568)">
<mask id="mask0_2897_14568" style="mask-type:luminance" maskUnits="userSpaceOnUse" x="-165" y="0" width="426" height="308">
<path d="M260.808 0H-165V307.228H260.808V0Z" fill="white"/>
</mask>
<g mask="url(#mask0_2897_14568)">
<path d="M-30.7273 0H127.577C160.124 0 186.031 28.6271 186.031 64.13V307.227H-90.2104V64.13C-90.2104 28.6271 -63.271 0 -30.7273 0Z" fill="#212B32"/>
<path d="M-68.8429 70.0957H164.665C166.083 70.0957 167.717 71.4846 167.717 73.0785V307.228H-71.8953V73.0785C-71.8953 71.4846 -70.2614 70.0957 -68.8429 70.0957Z" fill="#768692"/>
</g>
<g filter="url(#filter0_d_2897_14568)">
<rect x="61" y="162" width="280" height="64" rx="16" fill="white"/>
</g>
<rect x="75" y="174" width="40" height="40" rx="8" fill="#005EB8"/>
<path fill-rule="evenodd" clip-rule="evenodd" d="M80 199.726H110V188H80V199.726Z" fill="white"/>
<path fill-rule="evenodd" clip-rule="evenodd" d="M83.0124 189.216H86.3276L88.3721 195.969H88.3998L89.8006 189.216H92.3074L90.1965 198.941H86.8965L84.8063 192.187H84.7787L83.3875 198.941H80.8848L83.0137 189.216H83.0124Z" fill="#005EB8"/>
<path fill-rule="evenodd" clip-rule="evenodd" d="M93.2928 189.216H95.9367L95.1394 192.998H98.3453L99.144 189.216H101.775L99.7046 198.941H97.0469L97.937 194.754H94.7643L93.8742 198.941H91.2207L93.2915 189.216H93.2928Z" fill="#005EB8"/>
<path fill-rule="evenodd" clip-rule="evenodd" d="M108.791 191.408C108.277 191.172 107.58 190.963 106.596 190.963C105.541 190.963 104.685 191.114 104.685 191.896C104.685 193.272 108.55 192.759 108.55 195.709C108.55 198.394 105.996 199.091 103.687 199.091C102.66 199.091 101.477 198.853 100.607 198.588L101.234 196.612C101.76 196.947 102.817 197.17 103.686 197.17C104.555 197.17 105.811 197.016 105.811 196.015C105.811 194.456 101.946 195.041 101.946 192.301C101.946 189.794 104.199 189.043 106.382 189.043C107.609 189.043 108.763 189.168 109.433 189.474L108.791 191.408Z" fill="#005EB8"/>
<path d="M128.684 189H126.724V185.136L123.154 179.228H125.45L127.76 183.33L130.112 179.228H132.184L128.684 185.136V189ZM139.103 185.444C139.103 187.586 137.647 189.168 135.323 189.168C132.999 189.168 131.557 187.572 131.557 185.444C131.557 183.134 133.125 181.622 135.323 181.622C137.521 181.622 139.103 183.12 139.103 185.444ZM135.323 187.712C136.541 187.712 137.143 186.774 137.143 185.22C137.143 184.072 136.527 183.078 135.323 183.078C134.147 183.078 133.517 184.086 133.517 185.22C133.517 186.746 134.105 187.712 135.323 187.712ZM147.199 189H145.421V188.02H145.393C144.777 188.762 143.965 189.168 143.027 189.168C141.417 189.168 140.577 188.09 140.577 186.34V181.79H142.453V185.906C142.453 187.348 142.985 187.712 143.671 187.712C144.805 187.712 145.323 186.662 145.323 185.276V181.79H147.199V189ZM151.054 189H149.178V181.79H150.844V183.428H150.872C150.984 182.672 151.768 181.622 152.86 181.622C153.252 181.622 153.364 181.664 153.42 181.678V183.568C153.252 183.47 152.916 183.414 152.58 183.414C151.88 183.414 151.054 183.792 151.054 186.032V189ZM164.816 187.488V184.94H162.744V183.4H166.692V188.664C165.656 188.944 164.578 189.168 163.528 189.168C160.196 189.168 158.166 187.432 158.166 184.282C158.166 181.02 160.126 179.06 163.542 179.06C164.662 179.06 165.558 179.214 166.398 179.466L166.272 181.118C165.502 180.768 164.564 180.6 163.752 180.6C161.568 180.6 160.21 182.042 160.21 184.142C160.21 186.2 161.498 187.628 163.542 187.628C164.046 187.628 164.48 187.572 164.816 187.488ZM170.537 189H168.577V179.228H171.097C173.687 179.228 175.129 180.194 175.129 182.182C175.129 184.226 173.757 185.29 171.391 185.29H170.537V189ZM170.537 183.75H171.195C172.525 183.75 173.085 183.204 173.085 182.294C173.085 181.272 172.385 180.768 171.223 180.768H170.537V183.75ZM180.253 188.79L180.435 187.026C181.135 187.404 181.905 187.628 182.647 187.628C183.361 187.628 184.383 187.264 184.383 186.368C184.383 185.626 183.725 185.304 182.759 184.926C181.457 184.422 180.099 183.876 180.099 182.042C180.099 179.942 181.681 179.06 183.529 179.06C184.355 179.06 185.139 179.172 185.853 179.41L185.671 181.02C185.013 180.74 184.341 180.6 183.683 180.6C182.955 180.6 182.143 180.936 182.143 181.958C182.143 182.7 182.983 182.98 183.795 183.302C185.111 183.792 186.427 184.394 186.427 186.214C186.427 188.104 185.083 189.168 182.745 189.168C181.737 189.168 181.191 189.028 180.253 188.79ZM194.654 189H192.876V188.02H192.848C192.232 188.762 191.42 189.168 190.482 189.168C188.872 189.168 188.032 188.09 188.032 186.34V181.79H189.908V185.906C189.908 187.348 190.44 187.712 191.126 187.712C192.26 187.712 192.778 186.662 192.778 185.276V181.79H194.654V189ZM198.509 189H196.633V181.79H198.299V183.428H198.327C198.439 182.672 199.223 181.622 200.315 181.622C200.707 181.622 200.819 181.664 200.875 181.678V183.568C200.707 183.47 200.371 183.414 200.035 183.414C199.335 183.414 198.509 183.792 198.509 186.032V189ZM206.778 188.02V187.852H206.75C206.344 188.552 205.462 189 204.51 189C202.522 189 201.57 187.488 201.57 185.36C201.57 183.624 202.466 181.622 204.622 181.622C205.574 181.622 206.316 181.944 206.834 182.77H206.862V181.79H208.654V188.328C208.654 190.764 207.394 192.108 204.874 192.108C204.146 192.108 203.278 192.01 202.354 191.618L202.508 190.022C203.166 190.372 204.062 190.652 204.622 190.652C206.386 190.652 206.778 189.518 206.778 188.02ZM205.126 187.544C206.33 187.544 206.778 186.48 206.778 185.318C206.778 184.212 206.386 183.078 205.196 183.078C204.076 183.078 203.53 184.044 203.53 185.36C203.53 186.34 204.048 187.544 205.126 187.544ZM216.373 187.068V188.594C215.687 188.972 214.903 189.168 213.909 189.168C211.515 189.168 210.129 187.796 210.129 185.43C210.129 183.414 211.179 181.622 213.475 181.622C215.925 181.622 216.905 183.134 216.905 185.976H211.921C212.005 187.11 212.775 187.796 213.993 187.796C214.889 187.796 215.673 187.46 216.373 187.068ZM211.921 184.688H215.113C215.043 183.652 214.553 182.994 213.573 182.994C212.635 182.994 212.019 183.61 211.921 184.688ZM220.288 189H218.412V181.79H220.078V183.428H220.106C220.218 182.672 221.002 181.622 222.094 181.622C222.486 181.622 222.598 181.664 222.654 181.678V183.568C222.486 183.47 222.15 183.414 221.814 183.414C221.114 183.414 220.288 183.792 220.288 186.032V189ZM223.448 191.912L223.574 190.526C223.854 190.624 224.148 190.652 224.526 190.652C225.324 190.652 225.758 190.106 225.758 189.364L223 181.79H225.072L226.808 187.054H226.836L228.572 181.79H230.476L227.452 189.798C226.906 191.226 226.29 192.108 224.75 192.108C224.33 192.108 223.882 192.038 223.448 191.912Z" fill="#212B32"/>
<path d="M127.608 209H126.408V205.496L123.132 200.624H124.536L127.032 204.38L129.468 200.624H130.872L127.608 205.496V209ZM133.492 209.144C131.692 209.144 130.384 207.716 130.384 205.94C130.384 204.068 131.632 202.736 133.504 202.736C135.292 202.736 136.612 204.008 136.612 205.94C136.612 207.656 135.376 209.144 133.492 209.144ZM133.504 208.232C134.764 208.232 135.412 207.128 135.412 205.94C135.412 204.728 134.68 203.648 133.492 203.648C132.316 203.648 131.584 204.764 131.584 205.94C131.584 207.116 132.232 208.232 133.504 208.232ZM143.54 209H142.448V208.028H142.424C142.124 208.664 141.344 209.144 140.42 209.144C138.884 209.144 138.128 208.208 138.128 206.528V202.88H139.256V206.18C139.256 208.064 140.084 208.232 140.6 208.232C141.728 208.232 142.412 207.32 142.412 205.724V202.88H143.54V209ZM154.216 209H153.088V205.784C153.088 204.5 152.8 203.648 151.756 203.648C150.208 203.648 149.932 205.22 149.932 206.132V209H148.804V200H149.932V203.756H149.956C150.376 203.096 151.072 202.736 151.924 202.736C153.472 202.736 154.216 203.684 154.216 205.364V209ZM160.952 209H159.896V208.208H159.872C159.44 208.808 158.768 209.144 157.964 209.144C156.548 209.144 155.732 208.472 155.732 207.236C155.732 205.94 156.968 205.22 158.66 205.22C159.14 205.22 159.524 205.232 159.776 205.244C159.776 204.128 159.332 203.648 158.264 203.648C157.652 203.648 156.98 203.864 156.488 204.272L156.428 203.312C156.992 202.976 157.664 202.736 158.444 202.736C160.136 202.736 160.904 203.54 160.904 205.256V207.944C160.904 208.316 160.916 208.712 160.952 209ZM159.776 206.624V206.084C159.776 206.084 159.272 206.06 159.044 206.06C157.772 206.06 156.932 206.444 156.932 207.236C156.932 207.824 157.472 208.232 158.084 208.232C159.14 208.232 159.776 207.572 159.776 206.624ZM165.52 209H164.176L161.98 202.88H163.216L164.872 207.872H164.896L166.588 202.88H167.716L165.52 209ZM173.5 207.62V208.748C172.612 209.108 172.084 209.144 171.58 209.144C169.504 209.144 168.4 207.944 168.4 205.832C168.4 203.984 169.564 202.736 171.268 202.736C173.044 202.736 173.968 203.864 173.968 206.192H169.6C169.612 207.416 170.548 208.232 171.616 208.232C172.264 208.232 173.116 207.92 173.5 207.62ZM169.6 205.352H172.768C172.756 204.368 172.192 203.648 171.232 203.648C170.332 203.648 169.72 204.296 169.6 205.352ZM183.627 209H182.571V208.208H182.547C182.115 208.808 181.443 209.144 180.639 209.144C179.223 209.144 178.407 208.472 178.407 207.236C178.407 205.94 179.643 205.22 181.335 205.22C181.815 205.22 182.199 205.232 182.451 205.244C182.451 204.128 182.007 203.648 180.939 203.648C180.327 203.648 179.655 203.864 179.163 204.272L179.103 203.312C179.667 202.976 180.339 202.736 181.119 202.736C182.811 202.736 183.579 203.54 183.579 205.256V207.944C183.579 208.316 183.591 208.712 183.627 209ZM182.451 206.624V206.084C182.451 206.084 181.947 206.06 181.719 206.06C180.447 206.06 179.607 206.444 179.607 207.236C179.607 207.824 180.147 208.232 180.759 208.232C181.815 208.232 182.451 207.572 182.451 206.624ZM194.235 209H193.107V205.688C193.107 204.08 192.519 203.648 191.763 203.648C190.587 203.648 189.951 204.62 189.951 206.156V209H188.823V202.88H189.915V203.852H189.939C190.311 203.132 191.091 202.736 191.943 202.736C193.479 202.736 194.235 203.672 194.235 205.34V209ZM200.851 207.62V208.748C199.963 209.108 199.435 209.144 198.931 209.144C196.855 209.144 195.751 207.944 195.751 205.832C195.751 203.984 196.915 202.736 198.619 202.736C200.395 202.736 201.319 203.864 201.319 206.192H196.951C196.963 207.416 197.899 208.232 198.967 208.232C199.615 208.232 200.467 207.92 200.851 207.62ZM196.951 205.352H200.119C200.107 204.368 199.543 203.648 198.583 203.648C197.683 203.648 197.071 204.296 196.951 205.352ZM209.751 209H208.443L206.859 203.864H206.835L205.287 209H203.979L202.011 202.88H203.247L204.651 207.944H204.675L206.235 202.88H207.567L209.103 207.944H209.127L210.615 202.88H211.719L209.751 209ZM224.935 209H223.807V205.328C223.807 204.296 223.459 203.648 222.715 203.648C221.635 203.648 221.107 204.656 221.107 205.928V209H219.979V205.328C219.979 204.332 219.655 203.648 218.887 203.648C217.819 203.648 217.279 204.644 217.279 205.916V209H216.151V202.88H217.207V203.768H217.231C217.675 203.048 218.275 202.736 219.175 202.736C219.943 202.736 220.615 203.156 220.915 203.924C221.263 203.192 222.079 202.736 222.823 202.736C224.203 202.736 224.935 203.564 224.935 205.076V209ZM231.519 207.62V208.748C230.631 209.108 230.103 209.144 229.599 209.144C227.523 209.144 226.419 207.944 226.419 205.832C226.419 203.984 227.583 202.736 229.287 202.736C231.063 202.736 231.987 203.864 231.987 206.192H227.619C227.631 207.416 228.567 208.232 229.635 208.232C230.283 208.232 231.135 207.92 231.519 207.62ZM227.619 205.352H230.787C230.775 204.368 230.211 203.648 229.251 203.648C228.351 203.648 227.739 204.296 227.619 205.352ZM232.979 208.808L233.039 207.8C233.423 208.052 234.059 208.232 234.443 208.232C235.043 208.232 235.595 207.968 235.595 207.356C235.595 207.02 235.379 206.72 234.491 206.324C233.231 205.76 232.943 205.232 232.943 204.608C232.943 203.336 233.915 202.736 235.103 202.736C235.631 202.736 236.063 202.844 236.507 202.976L236.411 203.96C236.183 203.816 235.511 203.648 235.223 203.648C234.611 203.648 234.143 203.912 234.143 204.392C234.143 204.896 234.563 205.148 235.331 205.484C236.375 205.94 236.795 206.42 236.795 207.236C236.795 208.4 235.931 209.144 234.647 209.144C233.999 209.144 233.447 209.06 232.979 208.808ZM237.643 208.808L237.703 207.8C238.087 208.052 238.723 208.232 239.107 208.232C239.707 208.232 240.259 207.968 240.259 207.356C240.259 207.02 240.043 206.72 239.155 206.324C237.895 205.76 237.607 205.232 237.607 204.608C237.607 203.336 238.579 202.736 239.767 202.736C240.295 202.736 240.727 202.844 241.171 202.976L241.075 203.96C240.847 203.816 240.175 203.648 239.887 203.648C239.275 203.648 238.807 203.912 238.807 204.392C238.807 204.896 239.227 205.148 239.995 205.484C241.039 205.94 241.459 206.42 241.459 207.236C241.459 208.4 240.595 209.144 239.311 209.144C238.663 209.144 238.111 209.06 237.643 208.808ZM247.635 209H246.579V208.208H246.555C246.123 208.808 245.451 209.144 244.647 209.144C243.231 209.144 242.415 208.472 242.415 207.236C242.415 205.94 243.651 205.22 245.343 205.22C245.823 205.22 246.207 205.232 246.459 205.244C246.459 204.128 246.015 203.648 244.947 203.648C244.335 203.648 243.663 203.864 243.171 204.272L243.111 203.312C243.675 202.976 244.347 202.736 245.127 202.736C246.819 202.736 247.587 203.54 247.587 205.256V207.944C247.587 208.316 247.599 208.712 247.635 209ZM246.459 206.624V206.084C246.459 206.084 245.955 206.06 245.727 206.06C244.455 206.06 243.615 206.444 243.615 207.236C243.615 207.824 244.155 208.232 244.767 208.232C245.823 208.232 246.459 207.572 246.459 206.624ZM253.775 208.652V208.052H253.751C253.271 208.676 252.503 209 251.699 209C249.947 209 249.083 207.572 249.083 205.988C249.083 204.32 250.043 202.736 251.819 202.736C252.779 202.736 253.463 203.048 253.835 203.792H253.859V202.88H254.903V208.748C254.903 210.62 253.907 211.664 251.747 211.664C250.967 211.664 250.415 211.532 249.551 211.244L249.671 210.2C250.595 210.632 251.123 210.752 251.867 210.752C253.067 210.752 253.775 209.948 253.775 208.652ZM251.987 208.088C252.983 208.088 253.775 207.224 253.775 206C253.775 204.728 253.175 203.648 251.987 203.648C250.883 203.648 250.283 204.812 250.283 205.928C250.283 207.128 250.967 208.088 251.987 208.088ZM261.519 207.62V208.748C260.631 209.108 260.103 209.144 259.599 209.144C257.523 209.144 256.419 207.944 256.419 205.832C256.419 203.984 257.583 202.736 259.287 202.736C261.063 202.736 261.987 203.864 261.987 206.192H257.619C257.631 207.416 258.567 208.232 259.635 208.232C260.283 208.232 261.135 207.92 261.519 207.62ZM257.619 205.352H260.787C260.775 204.368 260.211 203.648 259.251 203.648C258.351 203.648 257.739 204.296 257.619 205.352Z" fill="#212B32"/>
</g>
<defs>
<filter id="filter0_d_2897_14568" x="58" y="162" width="286" height="70" filterUnits="userSpaceOnUse" color-interpolation-filters="sRGB">
<feFlood flood-opacity="0" result="BackgroundImageFix"/>
<feColorMatrix in="SourceAlpha" type="matrix" values="0 0 0 0 0 0 0 0 0 0 0 0 0 0 0 0 0 0 127 0" result="hardAlpha"/>
<feOffset dy="3"/>
<feGaussianBlur stdDeviation="1.5"/>
<feComposite in2="hardAlpha" operator="out"/>
<feColorMatrix type="matrix" values="0 0 0 0 0 0 0 0 0 0 0 0 0 0 0 0 0 0 0.25 0"/>
<feBlend mode="normal" in2="BackgroundImageFix" result="effect1_dropShadow_2897_14568"/>
<feBlend mode="normal" in="SourceGraphic" in2="effect1_dropShadow_2897_14568" result="shape"/>
</filter>
<clipPath id="clip0_2897_14568">
<rect width="402" height="307" fill="white"/>
</clipPath>
</defs>
</svg>
