<svg width="375" height="220" viewBox="0 0 375 220" fill="none" xmlns="http://www.w3.org/2000/svg">
<g clip-path="url(#clip0_4212_3253)">
<mask id="mask0_4212_3253" style="mask-type:luminance" maskUnits="userSpaceOnUse" x="-168" y="0" width="426" height="308">
<path d="M257.808 0H-168V307.228H257.808V0Z" fill="white"/>
</mask>
<g mask="url(#mask0_4212_3253)">
<path d="M-33.7278 0H124.577C157.124 0 183.03 28.6271 183.03 64.13V307.227H-93.2109V64.13C-93.2109 28.6271 -66.2715 0 -33.7278 0Z" fill="#212B32"/>
<path d="M-71.8421 70.0957H161.665C163.084 70.0957 164.718 71.4846 164.718 73.0785V307.228H-74.8945V73.0785C-74.8945 71.4846 -73.2607 70.0957 -71.8421 70.0957Z" fill="#768692"/>
</g>
<g filter="url(#filter0_d_4212_3253)">
<rect x="47" y="100" width="280" height="64" rx="16" fill="white"/>
</g>
<rect x="61" y="112" width="40" height="40" rx="8" fill="#005EB8"/>
<path fill-rule="evenodd" clip-rule="evenodd" d="M66 137.726H96V126H66V137.726Z" fill="white"/>
<path fill-rule="evenodd" clip-rule="evenodd" d="M69.0124 127.216H72.3276L74.3721 133.969H74.3998L75.8006 127.216H78.3074L76.1965 136.941H72.8965L70.8063 130.187H70.7787L69.3875 136.941H66.8848L69.0137 127.216H69.0124Z" fill="#005EB8"/>
<path fill-rule="evenodd" clip-rule="evenodd" d="M79.2928 127.216H81.9367L81.1394 130.998H84.3453L85.144 127.216H87.7754L85.7046 136.941H83.0469L83.937 132.754H80.7643L79.8742 136.941H77.2207L79.2915 127.216H79.2928Z" fill="#005EB8"/>
<path fill-rule="evenodd" clip-rule="evenodd" d="M94.791 129.408C94.2774 129.172 93.5797 128.963 92.5956 128.963C91.5408 128.963 90.6854 129.114 90.6854 129.896C90.6854 131.272 94.5501 130.759 94.5501 133.709C94.5501 136.394 91.9962 137.091 89.6873 137.091C88.6602 137.091 87.4767 136.853 86.6074 136.588L87.2344 134.612C87.7604 134.947 88.8167 135.17 89.6859 135.17C90.5552 135.17 91.8107 135.016 91.8107 134.015C91.8107 132.456 87.9459 133.041 87.9459 130.301C87.9459 127.794 90.1994 127.043 92.3824 127.043C93.6088 127.043 94.7633 127.168 95.4333 127.474L94.791 129.408Z" fill="#005EB8"/>
<path d="M114.684 127H112.724V123.136L109.154 117.228H111.45L113.76 121.33L116.112 117.228H118.184L114.684 123.136V127ZM125.103 123.444C125.103 125.586 123.647 127.168 121.323 127.168C118.999 127.168 117.557 125.572 117.557 123.444C117.557 121.134 119.125 119.622 121.323 119.622C123.521 119.622 125.103 121.12 125.103 123.444ZM121.323 125.712C122.541 125.712 123.143 124.774 123.143 123.22C123.143 122.072 122.527 121.078 121.323 121.078C120.147 121.078 119.517 122.086 119.517 123.22C119.517 124.746 120.105 125.712 121.323 125.712ZM133.199 127H131.421V126.02H131.393C130.777 126.762 129.965 127.168 129.027 127.168C127.417 127.168 126.577 126.09 126.577 124.34V119.79H128.453V123.906C128.453 125.348 128.985 125.712 129.671 125.712C130.805 125.712 131.323 124.662 131.323 123.276V119.79H133.199V127ZM137.054 127H135.178V119.79H136.844V121.428H136.872C136.984 120.672 137.768 119.622 138.86 119.622C139.252 119.622 139.364 119.664 139.42 119.678V121.568C139.252 121.47 138.916 121.414 138.58 121.414C137.88 121.414 137.054 121.792 137.054 124.032V127ZM150.816 125.488V122.94H148.744V121.4H152.692V126.664C151.656 126.944 150.578 127.168 149.528 127.168C146.196 127.168 144.166 125.432 144.166 122.282C144.166 119.02 146.126 117.06 149.542 117.06C150.662 117.06 151.558 117.214 152.398 117.466L152.272 119.118C151.502 118.768 150.564 118.6 149.752 118.6C147.568 118.6 146.21 120.042 146.21 122.142C146.21 124.2 147.498 125.628 149.542 125.628C150.046 125.628 150.48 125.572 150.816 125.488ZM156.537 127H154.577V117.228H157.097C159.687 117.228 161.129 118.194 161.129 120.182C161.129 122.226 159.757 123.29 157.391 123.29H156.537V127ZM156.537 121.75H157.195C158.525 121.75 159.085 121.204 159.085 120.294C159.085 119.272 158.385 118.768 157.223 118.768H156.537V121.75ZM166.253 126.79L166.435 125.026C167.135 125.404 167.905 125.628 168.647 125.628C169.361 125.628 170.383 125.264 170.383 124.368C170.383 123.626 169.725 123.304 168.759 122.926C167.457 122.422 166.099 121.876 166.099 120.042C166.099 117.942 167.681 117.06 169.529 117.06C170.355 117.06 171.139 117.172 171.853 117.41L171.671 119.02C171.013 118.74 170.341 118.6 169.683 118.6C168.955 118.6 168.143 118.936 168.143 119.958C168.143 120.7 168.983 120.98 169.795 121.302C171.111 121.792 172.427 122.394 172.427 124.214C172.427 126.104 171.083 127.168 168.745 127.168C167.737 127.168 167.191 127.028 166.253 126.79ZM180.654 127H178.876V126.02H178.848C178.232 126.762 177.42 127.168 176.482 127.168C174.872 127.168 174.032 126.09 174.032 124.34V119.79H175.908V123.906C175.908 125.348 176.44 125.712 177.126 125.712C178.26 125.712 178.778 124.662 178.778 123.276V119.79H180.654V127ZM184.509 127H182.633V119.79H184.299V121.428H184.327C184.439 120.672 185.223 119.622 186.315 119.622C186.707 119.622 186.819 119.664 186.875 119.678V121.568C186.707 121.47 186.371 121.414 186.035 121.414C185.335 121.414 184.509 121.792 184.509 124.032V127ZM192.778 126.02V125.852H192.75C192.344 126.552 191.462 127 190.51 127C188.522 127 187.57 125.488 187.57 123.36C187.57 121.624 188.466 119.622 190.622 119.622C191.574 119.622 192.316 119.944 192.834 120.77H192.862V119.79H194.654V126.328C194.654 128.764 193.394 130.108 190.874 130.108C190.146 130.108 189.278 130.01 188.354 129.618L188.508 128.022C189.166 128.372 190.062 128.652 190.622 128.652C192.386 128.652 192.778 127.518 192.778 126.02ZM191.126 125.544C192.33 125.544 192.778 124.48 192.778 123.318C192.778 122.212 192.386 121.078 191.196 121.078C190.076 121.078 189.53 122.044 189.53 123.36C189.53 124.34 190.048 125.544 191.126 125.544ZM202.373 125.068V126.594C201.687 126.972 200.903 127.168 199.909 127.168C197.515 127.168 196.129 125.796 196.129 123.43C196.129 121.414 197.179 119.622 199.475 119.622C201.925 119.622 202.905 121.134 202.905 123.976H197.921C198.005 125.11 198.775 125.796 199.993 125.796C200.889 125.796 201.673 125.46 202.373 125.068ZM197.921 122.688H201.113C201.043 121.652 200.553 120.994 199.573 120.994C198.635 120.994 198.019 121.61 197.921 122.688ZM206.288 127H204.412V119.79H206.078V121.428H206.106C206.218 120.672 207.002 119.622 208.094 119.622C208.486 119.622 208.598 119.664 208.654 119.678V121.568C208.486 121.47 208.15 121.414 207.814 121.414C207.114 121.414 206.288 121.792 206.288 124.032V127ZM209.448 129.912L209.574 128.526C209.854 128.624 210.148 128.652 210.526 128.652C211.324 128.652 211.758 128.106 211.758 127.364L209 119.79H211.072L212.808 125.054H212.836L214.572 119.79H216.476L213.452 127.798C212.906 129.226 212.29 130.108 210.75 130.108C210.33 130.108 209.882 130.038 209.448 129.912Z" fill="#212B32"/>
<path d="M113.608 147H112.408V143.496L109.132 138.624H110.536L113.032 142.38L115.468 138.624H116.872L113.608 143.496V147ZM119.492 147.144C117.692 147.144 116.384 145.716 116.384 143.94C116.384 142.068 117.632 140.736 119.504 140.736C121.292 140.736 122.612 142.008 122.612 143.94C122.612 145.656 121.376 147.144 119.492 147.144ZM119.504 146.232C120.764 146.232 121.412 145.128 121.412 143.94C121.412 142.728 120.68 141.648 119.492 141.648C118.316 141.648 117.584 142.764 117.584 143.94C117.584 145.116 118.232 146.232 119.504 146.232ZM129.54 147H128.448V146.028H128.424C128.124 146.664 127.344 147.144 126.42 147.144C124.884 147.144 124.128 146.208 124.128 144.528V140.88H125.256V144.18C125.256 146.064 126.084 146.232 126.6 146.232C127.728 146.232 128.412 145.32 128.412 143.724V140.88H129.54V147ZM140.216 147H139.088V143.784C139.088 142.5 138.8 141.648 137.756 141.648C136.208 141.648 135.932 143.22 135.932 144.132V147H134.804V138H135.932V141.756H135.956C136.376 141.096 137.072 140.736 137.924 140.736C139.472 140.736 140.216 141.684 140.216 143.364V147ZM146.952 147H145.896V146.208H145.872C145.44 146.808 144.768 147.144 143.964 147.144C142.548 147.144 141.732 146.472 141.732 145.236C141.732 143.94 142.968 143.22 144.66 143.22C145.14 143.22 145.524 143.232 145.776 143.244C145.776 142.128 145.332 141.648 144.264 141.648C143.652 141.648 142.98 141.864 142.488 142.272L142.428 141.312C142.992 140.976 143.664 140.736 144.444 140.736C146.136 140.736 146.904 141.54 146.904 143.256V145.944C146.904 146.316 146.916 146.712 146.952 147ZM145.776 144.624V144.084C145.776 144.084 145.272 144.06 145.044 144.06C143.772 144.06 142.932 144.444 142.932 145.236C142.932 145.824 143.472 146.232 144.084 146.232C145.14 146.232 145.776 145.572 145.776 144.624ZM151.52 147H150.176L147.98 140.88H149.216L150.872 145.872H150.896L152.588 140.88H153.716L151.52 147ZM159.5 145.62V146.748C158.612 147.108 158.084 147.144 157.58 147.144C155.504 147.144 154.4 145.944 154.4 143.832C154.4 141.984 155.564 140.736 157.268 140.736C159.044 140.736 159.968 141.864 159.968 144.192H155.6C155.612 145.416 156.548 146.232 157.616 146.232C158.264 146.232 159.116 145.92 159.5 145.62ZM155.6 143.352H158.768C158.756 142.368 158.192 141.648 157.232 141.648C156.332 141.648 155.72 142.296 155.6 143.352ZM169.627 147H168.571V146.208H168.547C168.115 146.808 167.443 147.144 166.639 147.144C165.223 147.144 164.407 146.472 164.407 145.236C164.407 143.94 165.643 143.22 167.335 143.22C167.815 143.22 168.199 143.232 168.451 143.244C168.451 142.128 168.007 141.648 166.939 141.648C166.327 141.648 165.655 141.864 165.163 142.272L165.103 141.312C165.667 140.976 166.339 140.736 167.119 140.736C168.811 140.736 169.579 141.54 169.579 143.256V145.944C169.579 146.316 169.591 146.712 169.627 147ZM168.451 144.624V144.084C168.451 144.084 167.947 144.06 167.719 144.06C166.447 144.06 165.607 144.444 165.607 145.236C165.607 145.824 166.147 146.232 166.759 146.232C167.815 146.232 168.451 145.572 168.451 144.624ZM180.235 147H179.107V143.688C179.107 142.08 178.519 141.648 177.763 141.648C176.587 141.648 175.951 142.62 175.951 144.156V147H174.823V140.88H175.915V141.852H175.939C176.311 141.132 177.091 140.736 177.943 140.736C179.479 140.736 180.235 141.672 180.235 143.34V147ZM186.851 145.62V146.748C185.963 147.108 185.435 147.144 184.931 147.144C182.855 147.144 181.751 145.944 181.751 143.832C181.751 141.984 182.915 140.736 184.619 140.736C186.395 140.736 187.319 141.864 187.319 144.192H182.951C182.963 145.416 183.899 146.232 184.967 146.232C185.615 146.232 186.467 145.92 186.851 145.62ZM182.951 143.352H186.119C186.107 142.368 185.543 141.648 184.583 141.648C183.683 141.648 183.071 142.296 182.951 143.352ZM195.751 147H194.443L192.859 141.864H192.835L191.287 147H189.979L188.011 140.88H189.247L190.651 145.944H190.675L192.235 140.88H193.567L195.103 145.944H195.127L196.615 140.88H197.719L195.751 147ZM210.935 147H209.807V143.328C209.807 142.296 209.459 141.648 208.715 141.648C207.635 141.648 207.107 142.656 207.107 143.928V147H205.979V143.328C205.979 142.332 205.655 141.648 204.887 141.648C203.819 141.648 203.279 142.644 203.279 143.916V147H202.151V140.88H203.207V141.768H203.231C203.675 141.048 204.275 140.736 205.175 140.736C205.943 140.736 206.615 141.156 206.915 141.924C207.263 141.192 208.079 140.736 208.823 140.736C210.203 140.736 210.935 141.564 210.935 143.076V147ZM217.519 145.62V146.748C216.631 147.108 216.103 147.144 215.599 147.144C213.523 147.144 212.419 145.944 212.419 143.832C212.419 141.984 213.583 140.736 215.287 140.736C217.063 140.736 217.987 141.864 217.987 144.192H213.619C213.631 145.416 214.567 146.232 215.635 146.232C216.283 146.232 217.135 145.92 217.519 145.62ZM213.619 143.352H216.787C216.775 142.368 216.211 141.648 215.251 141.648C214.351 141.648 213.739 142.296 213.619 143.352ZM218.979 146.808L219.039 145.8C219.423 146.052 220.059 146.232 220.443 146.232C221.043 146.232 221.595 145.968 221.595 145.356C221.595 145.02 221.379 144.72 220.491 144.324C219.231 143.76 218.943 143.232 218.943 142.608C218.943 141.336 219.915 140.736 221.103 140.736C221.631 140.736 222.063 140.844 222.507 140.976L222.411 141.96C222.183 141.816 221.511 141.648 221.223 141.648C220.611 141.648 220.143 141.912 220.143 142.392C220.143 142.896 220.563 143.148 221.331 143.484C222.375 143.94 222.795 144.42 222.795 145.236C222.795 146.4 221.931 147.144 220.647 147.144C219.999 147.144 219.447 147.06 218.979 146.808ZM223.643 146.808L223.703 145.8C224.087 146.052 224.723 146.232 225.107 146.232C225.707 146.232 226.259 145.968 226.259 145.356C226.259 145.02 226.043 144.72 225.155 144.324C223.895 143.76 223.607 143.232 223.607 142.608C223.607 141.336 224.579 140.736 225.767 140.736C226.295 140.736 226.727 140.844 227.171 140.976L227.075 141.96C226.847 141.816 226.175 141.648 225.887 141.648C225.275 141.648 224.807 141.912 224.807 142.392C224.807 142.896 225.227 143.148 225.995 143.484C227.039 143.94 227.459 144.42 227.459 145.236C227.459 146.4 226.595 147.144 225.311 147.144C224.663 147.144 224.111 147.06 223.643 146.808ZM233.635 147H232.579V146.208H232.555C232.123 146.808 231.451 147.144 230.647 147.144C229.231 147.144 228.415 146.472 228.415 145.236C228.415 143.94 229.651 143.22 231.343 143.22C231.823 143.22 232.207 143.232 232.459 143.244C232.459 142.128 232.015 141.648 230.947 141.648C230.335 141.648 229.663 141.864 229.171 142.272L229.111 141.312C229.675 140.976 230.347 140.736 231.127 140.736C232.819 140.736 233.587 141.54 233.587 143.256V145.944C233.587 146.316 233.599 146.712 233.635 147ZM232.459 144.624V144.084C232.459 144.084 231.955 144.06 231.727 144.06C230.455 144.06 229.615 144.444 229.615 145.236C229.615 145.824 230.155 146.232 230.767 146.232C231.823 146.232 232.459 145.572 232.459 144.624ZM239.775 146.652V146.052H239.751C239.271 146.676 238.503 147 237.699 147C235.947 147 235.083 145.572 235.083 143.988C235.083 142.32 236.043 140.736 237.819 140.736C238.779 140.736 239.463 141.048 239.835 141.792H239.859V140.88H240.903V146.748C240.903 148.62 239.907 149.664 237.747 149.664C236.967 149.664 236.415 149.532 235.551 149.244L235.671 148.2C236.595 148.632 237.123 148.752 237.867 148.752C239.067 148.752 239.775 147.948 239.775 146.652ZM237.987 146.088C238.983 146.088 239.775 145.224 239.775 144C239.775 142.728 239.175 141.648 237.987 141.648C236.883 141.648 236.283 142.812 236.283 143.928C236.283 145.128 236.967 146.088 237.987 146.088ZM247.519 145.62V146.748C246.631 147.108 246.103 147.144 245.599 147.144C243.523 147.144 242.419 145.944 242.419 143.832C242.419 141.984 243.583 140.736 245.287 140.736C247.063 140.736 247.987 141.864 247.987 144.192H243.619C243.631 145.416 244.567 146.232 245.635 146.232C246.283 146.232 247.135 145.92 247.519 145.62ZM243.619 143.352H246.787C246.775 142.368 246.211 141.648 245.251 141.648C244.351 141.648 243.739 142.296 243.619 143.352Z" fill="#212B32"/>
</g>
<defs>
<filter id="filter0_d_4212_3253" x="44" y="100" width="286" height="70" filterUnits="userSpaceOnUse" color-interpolation-filters="sRGB">
<feFlood flood-opacity="0" result="BackgroundImageFix"/>
<feColorMatrix in="SourceAlpha" type="matrix" values="0 0 0 0 0 0 0 0 0 0 0 0 0 0 0 0 0 0 127 0" result="hardAlpha"/>
<feOffset dy="3"/>
<feGaussianBlur stdDeviation="1.5"/>
<feComposite in2="hardAlpha" operator="out"/>
<feColorMatrix type="matrix" values="0 0 0 0 0 0 0 0 0 0 0 0 0 0 0 0 0 0 0.25 0"/>
<feBlend mode="normal" in2="BackgroundImageFix" result="effect1_dropShadow_4212_3253"/>
<feBlend mode="normal" in="SourceGraphic" in2="effect1_dropShadow_4212_3253" result="shape"/>
</filter>
<clipPath id="clip0_4212_3253">
<rect width="375" height="220" fill="white"/>
</clipPath>
</defs>
</svg>
